<svg xmlns="http://www.w3.org/2000/svg" xmlns:svg="http://www.w3.org/2000/svg" id="svg2" width="234.583" height="234.355" version="1.1"><metadata id="metadata7"/><g id="layer1" transform="translate(-27.274117,-57.361923)"><path style="opacity:.15637859;fill:#a02c2c;fill-opacity:1;fill-rule:nonzero;stroke:none" id="path2987" d="m 150.51273,47.260399 c 0,64.715451 -52.462242,117.177701 -117.177697,117.177701 -64.715454,0 -117.177696,-52.46225 -117.177696,-117.177701 0,-64.715455 52.462242,-117.177696 117.177696,-117.177696 64.715455,0 117.177697,52.462241 117.177697,117.177696 z" transform="translate(111.11678,127.27922)"/><text xml:space="preserve" style="font-size:16px;font-style:normal;font-variant:normal;font-weight:400;font-stretch:normal;text-align:center;line-height:125%;letter-spacing:0;word-spacing:0;writing-mode:lr-tb;text-anchor:middle;fill:#000;fill-opacity:1;stroke:none;font-family:FreeSerif;-inkscape-font-specification:FreeSerif" id="text2991" x="89.286" y="115.505"><tspan id="tspan2993" x="89.286" y="115.505" style="font-size:16px">develop</tspan></text><path style="opacity:.15637859;fill:#87cdde;fill-opacity:1;fill-rule:nonzero;stroke:none" id="path2999" d="m 294.99999,203.61218 c 0,40.92825 -33.17889,74.10714 -74.10714,74.10714 -40.92824,0 -74.10714,-33.17889 -74.10714,-74.10714 0,-40.92824 33.1789,-74.10714 74.10714,-74.10714 40.92825,0 74.10714,33.1789 74.10714,74.10714 z" transform="translate(-33.928571,-31.071429)"/><text xml:space="preserve" style="font-size:16px;font-style:normal;font-variant:normal;font-weight:400;font-stretch:normal;text-align:center;line-height:125%;letter-spacing:0;word-spacing:0;writing-mode:lr-tb;text-anchor:middle;fill:#000;fill-opacity:1;stroke:none;font-family:FreeSerif;-inkscape-font-specification:FreeSerif" id="text2991-3" x="160.794" y="150.947"><tspan id="tspan2993-6" x="160.794" y="150.947" style="font-size:16px">v0.2-release</tspan></text><path style="opacity:.15637859;fill:#f55;fill-opacity:1;fill-rule:nonzero;stroke:none" id="path3024" d="m 263.21429,199.86218 c 0,21.10517 -17.10912,38.21429 -38.21429,38.21429 -21.10517,0 -38.21429,-17.10912 -38.21429,-38.21429 0,-21.10517 17.10912,-38.21428 38.21429,-38.21428 21.10517,0 38.21429,17.10911 38.21429,38.21428 z" transform="matrix(0.91588785,0,0,0.90654206,20.782376,-4.8927208)"/><text xml:space="preserve" style="font-size:16px;font-style:normal;font-variant:normal;font-weight:400;font-stretch:normal;text-align:center;line-height:125%;letter-spacing:0;word-spacing:0;writing-mode:lr-tb;text-anchor:middle;fill:#000;fill-opacity:1;stroke:none;font-family:FreeSerif;-inkscape-font-specification:FreeSerif" id="text2991-3-7" x="226.329" y="178.571"><tspan id="tspan2993-6-7" x="226.329" y="178.571" style="font-size:16px">master</tspan></text></g></svg>